<?xml version="1.0" encoding="utf-8"?>
<!-- Generator: Adobe Illustrator 24.0.1, SVG Export Plug-In . SVG Version: 6.00 Build 0)  -->
<svg version="1.1" id="图层_1" xmlns="http://www.w3.org/2000/svg" xmlns:xlink="http://www.w3.org/1999/xlink" x="0px" y="0px"
	 viewBox="0 0 148 35" enable-background="new 0 0 148 35" xml:space="preserve">
<g display="none">
	<defs>
		<path id="SVGID_1_" d="M95.674,23.441v-2.884h2.17v-0.966h-2.17v-5.614h0.168c0.644,2.59,1.834,4.928,3.542,7l0.658-0.826
			c-1.624-1.806-2.758-3.864-3.402-6.174h2.856v-0.98h-3.822v-2.408H94.68v2.408h-3.71v0.98h2.73
			c-0.672,2.576-1.778,4.676-3.346,6.3l0.518,0.868c1.722-1.862,2.94-4.256,3.64-7.168h0.168v5.614h-2.142v0.966h2.142v2.884H95.674
			z M89.85,23.455v-9.184c0.546-1.036,0.994-2.142,1.358-3.304l-0.91-0.42c-0.644,2.31-1.694,4.354-3.15,6.146l0.294,1.008
			c0.504-0.574,0.98-1.176,1.414-1.806v7.56H89.85z M79.07,23.385c0.812,0,1.218-0.392,1.218-1.162v-2.968h5.516v-0.98h-5.516
			v-0.938c1.12-0.616,2.142-1.232,3.052-1.876v-0.938h-7.518v0.938h6.006c-0.574,0.364-1.428,0.854-2.562,1.442v1.372h-5.852v0.98
			h5.852v2.618c0,0.406-0.182,0.616-0.546,0.616c-0.588,0-1.12-0.014-1.61-0.028l0.238,0.924H79.07z M74.674,15.167v-2.156h9.856
			v2.156h1.008v-3.122H80.26c-0.182-0.574-0.378-1.092-0.574-1.554l-1.148,0.196c0.224,0.406,0.434,0.854,0.63,1.358h-5.502v3.122
			H74.674z M59.582,22.783c1.624-0.392,3.08-0.924,4.368-1.568v-0.966c-1.288,0.644-2.786,1.148-4.494,1.526L59.582,22.783z
			 M63.852,23.413c0.952-0.616,1.624-1.358,2.03-2.226c0.364-0.826,0.588-2.128,0.658-3.892h-0.98
			c-0.056,1.582-0.252,2.73-0.588,3.458c-0.35,0.714-0.938,1.33-1.764,1.862L63.852,23.413z M70.544,23.189
			c0.616-0.028,1.008-0.196,1.19-0.476c0.182-0.308,0.28-1.134,0.28-2.45l-0.868-0.308c0,0.826-0.042,1.428-0.098,1.82
			c-0.056,0.308-0.238,0.476-0.546,0.504h-0.91c-0.224-0.028-0.322-0.182-0.322-0.476v-4.634h-0.966v4.802
			c0,0.812,0.42,1.218,1.26,1.218H70.544z M59.722,19.955c1.344-0.224,2.758-0.63,4.228-1.246v-0.938
			c-0.994,0.434-1.974,0.77-2.954,1.022c0.812-1.008,1.834-2.674,3.066-4.998l-0.91-0.35c-0.266,0.532-0.518,1.022-0.77,1.498
			c-0.616,0.112-1.232,0.224-1.848,0.308c0.728-1.064,1.442-2.492,2.142-4.284l-0.966-0.392c-0.56,1.652-1.204,3.108-1.96,4.382
			c-0.14,0.196-0.28,0.322-0.448,0.392l0.266,0.924c0.77-0.112,1.54-0.252,2.296-0.392c-0.77,1.344-1.428,2.282-1.96,2.842
			c-0.126,0.112-0.28,0.224-0.462,0.308L59.722,19.955z M70.74,17.155l0.784-0.546c-0.518-0.924-1.26-1.988-2.212-3.206l-0.77,0.476
			c0.35,0.448,0.686,0.91,0.994,1.358c-1.288,0.21-2.59,0.364-3.892,0.476c0.476-0.56,1.022-1.442,1.638-2.66h4.284v-0.966h-3.15
			c-0.196-0.588-0.406-1.134-0.616-1.61l-1.022,0.168c0.224,0.434,0.434,0.91,0.63,1.442h-3.57v0.966h2.394
			c-0.756,1.456-1.358,2.352-1.834,2.702c-0.056,0.014-0.112,0.042-0.196,0.07l0.224,0.896c2.044-0.154,3.934-0.364,5.67-0.644
			C70.334,16.441,70.544,16.791,70.74,17.155z M46.044,23.035c1.4-0.854,2.576-1.848,3.528-2.996l-0.714-0.63
			c-0.924,1.064-2.072,2.002-3.444,2.814L46.044,23.035z M57.02,23.105l0.714-0.714c-0.952-1.036-2.128-2.058-3.542-3.08
			l-0.672,0.644C55.004,21.075,56.166,22.125,57.02,23.105z M51.084,23.399c0.784,0,1.19-0.406,1.19-1.19v-3.752
			c1.204-0.098,2.282-0.196,3.248-0.308c0.336,0.49,0.644,0.966,0.91,1.442l0.812-0.574c-0.616-0.994-1.498-2.156-2.646-3.5
			l-0.756,0.462c0.378,0.448,0.742,0.91,1.092,1.358c-1.624,0.196-3.584,0.35-5.866,0.476c1.764-0.924,3.822-2.422,6.188-4.508
			l-0.924-0.462c-0.672,0.602-1.316,1.162-1.946,1.666c-1.148,0.098-2.282,0.182-3.402,0.238c0.896-0.588,1.778-1.372,2.646-2.38
			c1.988-0.154,3.696-0.406,5.152-0.742l-0.49-0.854c-2.66,0.588-6.006,0.882-10.024,0.882l0.294,0.882
			c1.344,0,2.604-0.028,3.794-0.084c-0.952,1.036-1.778,1.722-2.478,2.072c-0.21,0.084-0.434,0.154-0.686,0.182l0.21,0.896
			c1.4-0.084,2.716-0.168,3.934-0.266c-1.428,1.064-2.716,1.848-3.864,2.352c-0.266,0.084-0.56,0.154-0.882,0.182l0.28,0.896
			c1.582-0.07,3.038-0.154,4.382-0.238v3.43c0,0.336-0.182,0.518-0.518,0.518c-0.462,0-0.938-0.028-1.442-0.07l0.224,0.994H51.084z"
			/>
	</defs>
	<clipPath id="SVGID_2_" display="inline">
		<use xlink:href="#SVGID_1_"  overflow="visible"/>
	</clipPath>
	<g display="inline" clip-path="url(#SVGID_2_)">
		<defs>
			<rect id="SVGID_3_" x="-1.398" y="-0.959" width="148" height="35"/>
		</defs>
		<clipPath id="SVGID_4_">
			<use xlink:href="#SVGID_3_"  overflow="visible"/>
		</clipPath>
		<rect x="40.414" y="5.477" clip-path="url(#SVGID_4_)" fill="#666666" width="64.628" height="22.978"/>
	</g>
</g>
<g display="none">
	<defs>
		<path id="SVGID_5_" d="M92.782,23.455l1.064-0.196c-0.154-0.602-0.462-1.75-0.658-2.338l-0.966,0.21
			C92.39,21.719,92.656,22.797,92.782,23.455z M96.156,23.413l1.008-0.308c-0.21-0.56-0.714-1.652-1.036-2.254l-0.924,0.322
			C95.512,21.775,95.96,22.867,96.156,23.413z M99.67,23.595l0.924-0.532c-0.392-0.658-1.05-1.666-1.554-2.324l-0.854,0.462
			C98.69,21.929,99.292,22.895,99.67,23.595z M89.506,23.651c0.49-0.728,1.106-1.736,1.428-2.576l-0.91-0.392
			c-0.322,0.742-0.924,1.694-1.498,2.436L89.506,23.651z M92.558,15.139l0.77-0.518c-0.364-0.56-1.134-1.61-1.428-1.974l-0.756,0.49
			C91.452,13.515,92.18,14.537,92.558,15.139z M96.59,15.181c0.42-0.504,1.204-1.596,1.484-2.044l-0.756-0.518
			c-0.28,0.448-1.022,1.47-1.498,1.988L96.59,15.181z M98.676,15.419h-3.57v-3.024h3.57V15.419z M94.126,15.419h-3.598v-3.024h3.598
			V15.419z M100.846,20.473v-0.896h-5.74v-1.19h4.942v-0.896h-4.942v-1.176h4.578v-4.802H89.52v4.802h4.606v1.176h-4.97v0.896h4.97
			v1.19h-5.754v0.896H100.846z M86.496,23.595l0.518-0.812c-0.868-0.56-2.156-1.344-3.024-1.848l-0.476,0.77
			C84.312,22.167,85.67,23.021,86.496,23.595z M79.216,23.539c0.98-0.504,2.24-1.246,3.164-1.848l-0.504-0.784
			c-0.952,0.658-2.086,1.316-3.108,1.764L79.216,23.539z M84.522,19.871h-3.15v-1.036h3.15V19.871z M84.522,18.037h-3.15v-1.05h3.15
			V18.037z M84.522,16.203h-3.15v-1.064h3.15V16.203z M87,20.711v-0.84h-1.512v-4.732h1.232v-0.798h-1.232v-0.91h-0.966v0.91h-3.15
			v-0.91h-0.98v0.91h-1.134v0.798h1.134v4.732h-1.344v0.84H87z M74.876,23.427c1.05-1.974,1.4-3.346,1.484-6.762h1.47
			c0,0.434-0.098,4.116-0.126,4.55c-0.042,0.588-0.21,0.756-0.896,0.756h-0.812l0.224,0.924h0.924c0.98,0,1.414-0.308,1.456-1.316
			l0.14-5.852h-2.366v-1.89h2.646v-0.252l0.756,0.518c0.364-0.42,0.672-0.812,0.952-1.204h6.202v-0.882h-5.656
			c0.168-0.294,0.322-0.616,0.49-0.966l-0.91-0.308c-0.392,0.98-1.008,1.89-1.834,2.786v-0.63h-2.128l0.84-0.322
			c-0.238-0.574-0.574-1.288-0.868-1.848l-0.966,0.35c0.28,0.504,0.644,1.246,0.868,1.82h-2.422v0.938h1.148
			c-0.014,0.7-0.042,2.058-0.042,2.352c-0.126,3.654-0.294,4.676-1.428,6.79L74.876,23.427z M72.524,23.553l0.574-1.008
			c-1.61-0.882-2.898-1.834-3.948-2.912c1.484-1.778,2.282-3.99,2.954-7.448l-1.064-0.238c-0.546,3.178-1.232,5.208-2.632,6.874
			c-1.47-1.792-2.366-3.92-2.912-6.566l-1.008,0.336c0.63,2.912,1.638,5.138,3.178,7.014c-1.036,0.994-2.38,1.89-4.186,2.898
			l0.616,0.952c1.848-1.036,3.234-1.96,4.312-3.024C69.528,21.579,70.872,22.587,72.524,23.553z M68.366,14.565l0.994-0.518
			c-0.392-0.798-1.204-2.366-1.61-3.108l-0.952,0.49C67.218,12.199,67.988,13.725,68.366,14.565z M63.116,23.399v-8.96
			c0.462-1.008,0.868-2.072,1.204-3.234l-1.078-0.308c-0.7,2.394-1.778,4.662-3.29,6.356l0.63,1.162
			c0.56-0.672,1.05-1.344,1.484-2.044v7.028H63.116z M47.436,23.511c0.378-0.798,1.918-4.018,2.296-4.774l-0.406-0.196l-0.602-0.28
			c-0.322,0.728-1.862,3.92-2.31,4.718L47.436,23.511z M49.004,17.449l0.672-0.924c-0.798-0.644-2.184-1.68-2.926-2.156l-0.63,0.868
			C46.82,15.713,48.192,16.791,49.004,17.449z M49.844,23.497c1.862-1.106,3.304-2.17,4.452-3.318
			c1.036,1.134,2.366,2.198,4.088,3.29l0.7-1.036c-1.708-1.05-2.996-2.058-4.004-3.108c1.484-1.764,2.352-3.766,2.94-6.426v-1.05
			h-7.56v1.078h6.398c-0.49,2.268-1.246,4.004-2.52,5.544c-1.232-1.568-1.918-3.29-2.408-5.432l-1.036,0.322
			c0.546,2.324,1.316,4.228,2.66,5.95c-1.12,1.106-2.548,2.114-4.396,3.15L49.844,23.497z M49.564,14.145l0.686-0.896
			c-0.672-0.532-2.086-1.652-2.772-2.156l-0.672,0.854C47.52,12.479,48.892,13.585,49.564,14.145z"/>
	</defs>
	<clipPath id="SVGID_6_" display="inline">
		<use xlink:href="#SVGID_5_"  overflow="visible"/>
	</clipPath>
	<g display="inline" clip-path="url(#SVGID_6_)">
		<defs>
			<rect id="SVGID_7_" x="-0.398" y="-0.959" width="148" height="35"/>
		</defs>
		<clipPath id="SVGID_8_">
			<use xlink:href="#SVGID_7_"  overflow="visible"/>
		</clipPath>
		<rect x="41.12" y="5.729" clip-path="url(#SVGID_8_)" fill="#666666" width="64.726" height="22.922"/>
	</g>
</g>
<g display="none">
	<defs>
		<path id="SVGID_9_" d="M95.674,23.441v-2.884h2.17v-0.966h-2.17v-5.614h0.168c0.644,2.59,1.834,4.928,3.542,7l0.658-0.826
			c-1.624-1.806-2.758-3.864-3.402-6.174h2.856v-0.98h-3.822v-2.408H94.68v2.408h-3.71v0.98h2.73
			c-0.672,2.576-1.778,4.676-3.346,6.3l0.518,0.868c1.722-1.862,2.94-4.256,3.64-7.168h0.168v5.614h-2.142v0.966h2.142v2.884H95.674
			z M89.85,23.455v-9.184c0.546-1.036,0.994-2.142,1.358-3.304l-0.91-0.42c-0.644,2.31-1.694,4.354-3.15,6.146l0.294,1.008
			c0.504-0.574,0.98-1.176,1.414-1.806v7.56H89.85z M79.07,23.385c0.812,0,1.218-0.392,1.218-1.162v-2.968h5.516v-0.98h-5.516
			v-0.938c1.12-0.616,2.142-1.232,3.052-1.876v-0.938h-7.518v0.938h6.006c-0.574,0.364-1.428,0.854-2.562,1.442v1.372h-5.852v0.98
			h5.852v2.618c0,0.406-0.182,0.616-0.546,0.616c-0.588,0-1.12-0.014-1.61-0.028l0.238,0.924H79.07z M74.674,15.167v-2.156h9.856
			v2.156h1.008v-3.122H80.26c-0.182-0.574-0.378-1.092-0.574-1.554l-1.148,0.196c0.224,0.406,0.434,0.854,0.63,1.358h-5.502v3.122
			H74.674z M59.582,22.783c1.624-0.392,3.08-0.924,4.368-1.568v-0.966c-1.288,0.644-2.786,1.148-4.494,1.526L59.582,22.783z
			 M63.852,23.413c0.952-0.616,1.624-1.358,2.03-2.226c0.364-0.826,0.588-2.128,0.658-3.892h-0.98
			c-0.056,1.582-0.252,2.73-0.588,3.458c-0.35,0.714-0.938,1.33-1.764,1.862L63.852,23.413z M70.544,23.189
			c0.616-0.028,1.008-0.196,1.19-0.476c0.182-0.308,0.28-1.134,0.28-2.45l-0.868-0.308c0,0.826-0.042,1.428-0.098,1.82
			c-0.056,0.308-0.238,0.476-0.546,0.504h-0.91c-0.224-0.028-0.322-0.182-0.322-0.476v-4.634h-0.966v4.802
			c0,0.812,0.42,1.218,1.26,1.218H70.544z M59.722,19.955c1.344-0.224,2.758-0.63,4.228-1.246v-0.938
			c-0.994,0.434-1.974,0.77-2.954,1.022c0.812-1.008,1.834-2.674,3.066-4.998l-0.91-0.35c-0.266,0.532-0.518,1.022-0.77,1.498
			c-0.616,0.112-1.232,0.224-1.848,0.308c0.728-1.064,1.442-2.492,2.142-4.284l-0.966-0.392c-0.56,1.652-1.204,3.108-1.96,4.382
			c-0.14,0.196-0.28,0.322-0.448,0.392l0.266,0.924c0.77-0.112,1.54-0.252,2.296-0.392c-0.77,1.344-1.428,2.282-1.96,2.842
			c-0.126,0.112-0.28,0.224-0.462,0.308L59.722,19.955z M70.74,17.155l0.784-0.546c-0.518-0.924-1.26-1.988-2.212-3.206l-0.77,0.476
			c0.35,0.448,0.686,0.91,0.994,1.358c-1.288,0.21-2.59,0.364-3.892,0.476c0.476-0.56,1.022-1.442,1.638-2.66h4.284v-0.966h-3.15
			c-0.196-0.588-0.406-1.134-0.616-1.61l-1.022,0.168c0.224,0.434,0.434,0.91,0.63,1.442h-3.57v0.966h2.394
			c-0.756,1.456-1.358,2.352-1.834,2.702c-0.056,0.014-0.112,0.042-0.196,0.07l0.224,0.896c2.044-0.154,3.934-0.364,5.67-0.644
			C70.334,16.441,70.544,16.791,70.74,17.155z M46.044,23.035c1.4-0.854,2.576-1.848,3.528-2.996l-0.714-0.63
			c-0.924,1.064-2.072,2.002-3.444,2.814L46.044,23.035z M57.02,23.105l0.714-0.714c-0.952-1.036-2.128-2.058-3.542-3.08
			l-0.672,0.644C55.004,21.075,56.166,22.125,57.02,23.105z M51.084,23.399c0.784,0,1.19-0.406,1.19-1.19v-3.752
			c1.204-0.098,2.282-0.196,3.248-0.308c0.336,0.49,0.644,0.966,0.91,1.442l0.812-0.574c-0.616-0.994-1.498-2.156-2.646-3.5
			l-0.756,0.462c0.378,0.448,0.742,0.91,1.092,1.358c-1.624,0.196-3.584,0.35-5.866,0.476c1.764-0.924,3.822-2.422,6.188-4.508
			l-0.924-0.462c-0.672,0.602-1.316,1.162-1.946,1.666c-1.148,0.098-2.282,0.182-3.402,0.238c0.896-0.588,1.778-1.372,2.646-2.38
			c1.988-0.154,3.696-0.406,5.152-0.742l-0.49-0.854c-2.66,0.588-6.006,0.882-10.024,0.882l0.294,0.882
			c1.344,0,2.604-0.028,3.794-0.084c-0.952,1.036-1.778,1.722-2.478,2.072c-0.21,0.084-0.434,0.154-0.686,0.182l0.21,0.896
			c1.4-0.084,2.716-0.168,3.934-0.266c-1.428,1.064-2.716,1.848-3.864,2.352c-0.266,0.084-0.56,0.154-0.882,0.182l0.28,0.896
			c1.582-0.07,3.038-0.154,4.382-0.238v3.43c0,0.336-0.182,0.518-0.518,0.518c-0.462,0-0.938-0.028-1.442-0.07l0.224,0.994H51.084z"
			/>
	</defs>
	<clipPath id="SVGID_10_" display="inline">
		<use xlink:href="#SVGID_9_"  overflow="visible"/>
	</clipPath>
	<g display="inline" clip-path="url(#SVGID_10_)">
		<defs>
			<rect id="SVGID_11_" x="-1.398" y="-0.959" width="148" height="35"/>
		</defs>
		<clipPath id="SVGID_12_">
			<use xlink:href="#SVGID_11_"  overflow="visible"/>
		</clipPath>
		<rect x="40.414" y="5.477" clip-path="url(#SVGID_12_)" fill="#333333" width="64.628" height="22.978"/>
	</g>
</g>
<g display="none">
	<defs>
		<path id="SVGID_13_" d="M94.847,21.516c0.02-0.68,0.03-1.205,0.03-1.575c0.51,0,1.265-0.01,2.265-0.03l2.055-0.015
			c-0.01,0.37-0.015,0.885-0.015,1.545l-1.125,0.015C97.407,21.476,96.337,21.496,94.847,21.516z M94.892,19.281v-1.155
			c0-0.13-0.005-0.23-0.015-0.3c0.9-0.04,2.355-0.07,4.365-0.09c-0.02,0.58-0.03,1.065-0.03,1.455l-1.095,0.03
			C97.457,19.241,96.382,19.261,94.892,19.281z M94.202,23.061c0.08,0,0.19-0.035,0.33-0.105c0.19-0.09,0.285-0.225,0.285-0.405
			l0.015-0.315c0.51,0,1.265-0.01,2.265-0.03l2.085-0.015c0.02,0.34,0.045,0.565,0.075,0.675c0.01,0.07,0.055,0.105,0.135,0.105
			c0.07,0,0.145-0.02,0.225-0.06c0.17-0.07,0.29-0.172,0.36-0.307s0.105-0.312,0.105-0.533l0-0.928
			c0.003-1.367,0.023-2.478,0.06-3.332c0-0.17,0.025-0.305,0.075-0.405c0.03-0.06,0.045-0.11,0.045-0.15
			c0-0.07-0.045-0.135-0.135-0.195c-0.25-0.13-0.395-0.2-0.435-0.21c-0.06-0.02-0.11-0.03-0.15-0.03c-0.02,0-0.05,0.01-0.09,0.03
			c-0.02,0-0.05,0.01-0.09,0.03c-0.15,0.08-0.31,0.12-0.48,0.12l-2.52,0.06c0.2-0.17,0.44-0.455,0.72-0.855l0.195-0.255
			c0.05-0.07,0.075-0.125,0.075-0.165c0-0.05-0.04-0.1-0.12-0.15c-0.14-0.1-0.355-0.19-0.645-0.27
			c-0.07-0.01-0.122-0.005-0.158,0.015c-0.035,0.02-0.058,0.07-0.067,0.15l-0.09,0.39c-0.09,0.31-0.245,0.695-0.465,1.155
			l-1.17,0.03h-0.015c-0.14-0.08-0.3-0.14-0.48-0.18c-0.07-0.01-0.125-0.013-0.165-0.007c-0.04,0.005-0.06,0.028-0.06,0.067
			c0,0.01,0.01,0.065,0.03,0.165c0.04,0.15,0.07,0.38,0.09,0.69c0.01,0.24,0.015,0.705,0.015,1.395l-0.015,3.255
			c0,0.2,0.02,0.365,0.06,0.495C94.117,23.036,94.152,23.061,94.202,23.061z M93.977,16.281c0.05,0,0.11-0.035,0.18-0.105
			c0.23-0.2,0.365-0.315,0.405-0.345c0.24-0.16,0.555-0.35,0.945-0.57c0.05-0.03,0.215-0.125,0.495-0.285s0.55-0.345,0.81-0.555
			c0.17-0.14,0.255-0.25,0.255-0.33c0-0.05-0.04-0.075-0.12-0.075s-0.175,0.02-0.285,0.06c-0.39,0.14-0.92,0.35-1.59,0.63
			l-0.39,0.165l0.015-0.435c0.02-0.38,0.04-0.94,0.06-1.68c0.39,0,0.825-0.01,1.305-0.03c0.23-0.01,0.515-0.015,0.855-0.015
			c0.15,0,0.225-0.06,0.225-0.18c0-0.08-0.035-0.19-0.105-0.33c-0.05-0.11-0.097-0.188-0.142-0.233
			c-0.045-0.045-0.098-0.067-0.158-0.067c-0.06,0-0.125,0.015-0.195,0.045c-0.08,0.04-0.31,0.075-0.69,0.105
			c-0.29,0.03-0.65,0.045-1.08,0.045v-1.62c0-0.08-0.01-0.14-0.03-0.18c-0.02-0.04-0.06-0.07-0.12-0.09
			c-0.16-0.07-0.37-0.105-0.63-0.105c-0.11,0-0.165,0.04-0.165,0.12l0.015,0.105c0.03,0.13,0.055,0.33,0.075,0.6
			c0.02,0.72,0.03,1.275,0.03,1.665c0,0.82-0.02,1.55-0.06,2.19c-0.01,0.14-0.043,0.25-0.098,0.33s-0.162,0.16-0.323,0.24
			c-0.06,0.03-0.09,0.065-0.09,0.105v0.03c-0.02,0.05-0.005,0.105,0.045,0.165c0.12,0.22,0.255,0.405,0.405,0.555
			C93.897,16.256,93.947,16.281,93.977,16.281z M91.067,23.106c0.08,0,0.165-0.105,0.255-0.315c0.09-0.2,0.152-0.403,0.188-0.608
			c0.035-0.205,0.052-0.478,0.052-0.818c0-1.93,0.015-3.75,0.045-5.46c0.45,0.62,0.765,1.1,0.945,1.44
			c0.1,0.19,0.22,0.285,0.36,0.285c0.09,0,0.18-0.045,0.27-0.135c0.09-0.09,0.135-0.205,0.135-0.345c0-0.15-0.045-0.29-0.135-0.42
			c-0.44-0.65-0.965-1.08-1.575-1.29l0.03-1.635l1.38-0.075c0.09-0.01,0.152-0.025,0.188-0.045c0.035-0.02,0.052-0.06,0.052-0.12
			c0-0.05-0.025-0.15-0.075-0.3c-0.05-0.12-0.095-0.198-0.135-0.233s-0.105-0.052-0.195-0.052h-0.12l-1.08,0.03l0.045-1.395
			l0.045-1.035l0.015-0.165c0-0.08-0.012-0.147-0.037-0.202s-0.073-0.108-0.143-0.158c-0.19-0.14-0.405-0.25-0.645-0.33
			c-0.05-0.02-0.105-0.03-0.165-0.03s-0.09,0.04-0.09,0.12c0,0.07,0.005,0.13,0.015,0.18c0.09,0.39,0.135,0.85,0.135,1.38v1.68
			l-0.765,0.045c-0.28,0.02-0.71,0.04-1.29,0.06c-0.12,0.01-0.202,0.022-0.247,0.037c-0.045,0.015-0.067,0.048-0.067,0.097
			c0,0.06,0.045,0.18,0.135,0.36c0.05,0.12,0.095,0.2,0.135,0.24c0.04,0.04,0.1,0.06,0.18,0.06l0.165-0.015l1.455-0.075
			c-0.31,0.98-0.668,1.887-1.073,2.722c-0.405,0.835-0.882,1.702-1.433,2.602c-0.06,0.1-0.09,0.185-0.09,0.255
			c0,0.06,0.025,0.09,0.075,0.09c0.05,0,0.125-0.04,0.225-0.12c0.53-0.46,0.993-0.98,1.388-1.56c0.395-0.58,0.783-1.265,1.162-2.055
			c-0.03,1.93-0.075,3.795-0.135,5.595c-0.01,0.29,0,0.538,0.03,0.743c0.03,0.205,0.09,0.423,0.18,0.653
			C90.927,23.001,90.997,23.106,91.067,23.106z M99.887,15.951c0.35,0,0.68-0.015,0.99-0.045c0.43-0.04,0.74-0.15,0.93-0.33
			c0.06-0.06,0.09-0.14,0.09-0.24c0-0.13-0.06-0.245-0.18-0.345c-0.08-0.07-0.135-0.18-0.165-0.33
			c-0.03-0.15-0.055-0.455-0.075-0.915c-0.02-0.17-0.055-0.255-0.105-0.255c-0.02,0-0.042,0.02-0.067,0.06
			c-0.025,0.04-0.042,0.095-0.052,0.165c-0.04,0.21-0.07,0.44-0.09,0.69l-0.045,0.36c-0.02,0.12-0.058,0.202-0.113,0.247
			c-0.055,0.045-0.157,0.073-0.307,0.083c-0.28,0.03-0.585,0.045-0.915,0.045c-0.19,0-0.465-0.01-0.825-0.03
			c-0.2-0.02-0.343-0.08-0.428-0.18c-0.085-0.1-0.132-0.275-0.142-0.525c-0.01-0.35-0.015-0.885-0.015-1.605
			c0.49-0.11,0.918-0.267,1.283-0.472c0.365-0.205,0.888-0.538,1.568-0.997c0.08-0.05,0.12-0.11,0.12-0.18
			c0-0.04-0.015-0.09-0.045-0.15c-0.09-0.15-0.22-0.31-0.39-0.48c-0.06-0.06-0.11-0.09-0.15-0.09s-0.085,0.035-0.135,0.105
			c-0.07,0.11-0.17,0.23-0.3,0.36c-0.49,0.52-1.135,1.025-1.935,1.515c0-0.45,0.01-0.995,0.03-1.635c0-0.27,0.025-0.53,0.075-0.78
			c0.02-0.09,0.018-0.157-0.007-0.202s-0.073-0.087-0.143-0.128c-0.18-0.1-0.37-0.165-0.57-0.195
			c-0.08-0.02-0.135-0.023-0.165-0.007c-0.03,0.015-0.045,0.057-0.045,0.127v0.09c0.02,0.3,0.03,0.54,0.03,0.72l0.015,0.345
			l-0.015,1.275c-0.02,0.68-0.03,1.22-0.03,1.62l0.015,0.78c0.02,0.5,0.128,0.863,0.323,1.088c0.195,0.225,0.518,0.358,0.967,0.397
			C99.207,15.936,99.547,15.951,99.887,15.951z M80.207,23.031c0.08,0,0.16-0.065,0.24-0.195c0.37-0.62,0.743-1.198,1.118-1.733
			s0.823-1.148,1.342-1.837l0.735-0.99c0.13-0.16,0.27-0.285,0.42-0.375c0.09-0.06,0.135-0.13,0.135-0.21
			c0-0.03-0.01-0.075-0.03-0.135c-0.07-0.14-0.17-0.285-0.3-0.435c-0.1-0.1-0.18-0.15-0.24-0.15c-0.02,0-0.05,0.01-0.09,0.03
			l-0.105,0.045c-0.06,0.04-0.128,0.068-0.202,0.083c-0.075,0.015-0.173,0.022-0.293,0.022c-1.81,0.1-4.17,0.17-7.08,0.21
			c-0.19-0.01-0.285,0.025-0.285,0.105c0,0.05,0.05,0.175,0.15,0.375c0.09,0.18,0.162,0.292,0.217,0.337s0.143,0.062,0.262,0.052
			l4.455-0.165l2.13-0.09l-0.57,0.78c-0.11,0.15-0.415,0.57-0.915,1.26c-0.5,0.69-0.95,1.345-1.35,1.965
			c-0.14,0.22-0.21,0.395-0.21,0.525c0,0.09,0.035,0.175,0.105,0.255C79.997,22.941,80.117,23.031,80.207,23.031z M80.447,16.491
			c0.1,0,0.2-0.05,0.3-0.15c0.1-0.12,0.15-0.25,0.15-0.39c0-0.16-0.06-0.32-0.18-0.48c-0.55-0.76-1.225-1.255-2.025-1.485
			l-0.15-0.03c-0.07,0-0.105,0.025-0.105,0.075c0,0.02,0.035,0.085,0.105,0.195l0.33,0.39c0.22,0.26,0.435,0.522,0.645,0.787
			c0.21,0.265,0.38,0.517,0.51,0.758C80.157,16.381,80.297,16.491,80.447,16.491z M73.157,16.926c0.08,0,0.185-0.035,0.315-0.105
			c1.02-0.53,1.925-1.118,2.715-1.763s1.6-1.417,2.43-2.317c0.41-0.44,0.855-0.965,1.335-1.575c0.73,1.06,1.543,2.017,2.438,2.872
			c0.895,0.855,1.952,1.668,3.173,2.438c0.14,0.09,0.25,0.135,0.33,0.135c0.07,0,0.155-0.025,0.255-0.075
			c0.06-0.03,0.125-0.068,0.195-0.113s0.125-0.083,0.165-0.112c0.15-0.14,0.315-0.24,0.495-0.3c0.13-0.06,0.195-0.11,0.195-0.15
			c0-0.04-0.085-0.1-0.255-0.18c-0.18-0.09-0.342-0.167-0.487-0.233c-0.145-0.065-0.272-0.122-0.382-0.172
			c-0.58-0.26-1.005-0.47-1.275-0.63c-1.5-0.89-3.015-2.18-4.545-3.87l0.465-0.615c0.08-0.1,0.12-0.175,0.12-0.225
			c0-0.06-0.04-0.13-0.12-0.21c-0.13-0.13-0.29-0.245-0.48-0.345c-0.06-0.03-0.11-0.045-0.15-0.045c-0.07,0-0.145,0.06-0.225,0.18
			c-0.49,0.84-1.145,1.75-1.965,2.73c-1.24,1.45-2.775,2.89-4.605,4.32c-0.15,0.12-0.225,0.22-0.225,0.3
			C73.067,16.906,73.097,16.926,73.157,16.926z M67.442,19.191c0.07,0,0.155-0.065,0.255-0.195c0.16-0.22,0.25-0.545,0.27-0.975
			c0.05-1.5,0.075-3.025,0.075-4.575c0-0.26-0.005-0.455-0.015-0.585c-0.02-0.1-0.048-0.177-0.083-0.233
			c-0.035-0.055-0.092-0.102-0.173-0.142c-0.12-0.06-0.29-0.115-0.51-0.165c-0.08-0.02-0.135-0.023-0.165-0.008
			c-0.03,0.015-0.045,0.048-0.045,0.098c0,0.05,0.005,0.09,0.015,0.12c0.05,0.22,0.085,0.47,0.105,0.75l0.015,1.065
			c0,1.01-0.04,2.285-0.12,3.825c-0.01,0.16-0.002,0.302,0.023,0.427c0.025,0.125,0.072,0.257,0.142,0.398
			C67.312,19.126,67.382,19.191,67.442,19.191z M59.027,22.116c0.03,0,0.105-0.01,0.225-0.03l0.81-0.195
			c1.26-0.29,2.327-0.56,3.202-0.81c0.875-0.25,1.813-0.585,2.813-1.005c0.15-0.06,0.225-0.13,0.225-0.21
			c0-0.07-0.07-0.105-0.21-0.105c-0.07,0-0.125,0.005-0.165,0.015c-0.24,0.06-0.44,0.1-0.6,0.12c-1.05,0.22-1.85,0.38-2.4,0.48
			l0.045-1.995l2.205-0.09c0.1-0.01,0.17-0.028,0.21-0.052c0.04-0.025,0.06-0.068,0.06-0.128c0-0.09-0.025-0.19-0.075-0.3
			c-0.06-0.14-0.12-0.228-0.18-0.263c-0.06-0.035-0.155-0.048-0.285-0.038l-1.455,0.09l-0.465,0.03l0.03-0.885
			c0-0.11,0.01-0.245,0.03-0.405l0.015-0.45c0-0.08-0.01-0.138-0.03-0.173s-0.055-0.062-0.105-0.083
			c-0.09-0.04-0.225-0.09-0.405-0.15c0.85-0.17,1.565-0.335,2.145-0.495c0.15,0.38,0.245,0.645,0.285,0.795
			c0.1,0.32,0.235,0.48,0.405,0.48c0.08,0,0.165-0.03,0.255-0.09c0.17-0.12,0.255-0.295,0.255-0.525c0-0.14-0.03-0.29-0.09-0.45
			c-0.45-1.13-1.105-1.995-1.965-2.595c-0.09-0.06-0.165-0.09-0.225-0.09c-0.05,0-0.075,0.025-0.075,0.075
			c0,0.03,0.025,0.105,0.075,0.225c0.35,0.65,0.64,1.22,0.87,1.71c-1,0.1-2.275,0.27-3.825,0.51c0.67-0.85,1.35-1.795,2.04-2.835
			c0.06-0.09,0.09-0.175,0.09-0.255c0-0.06-0.025-0.125-0.075-0.195l-0.105-0.12c1.18-0.03,2.13-0.045,2.85-0.045h0.495
			c0.18,0,0.27-0.08,0.27-0.24c0-0.1-0.025-0.205-0.075-0.315c-0.07-0.17-0.14-0.28-0.21-0.33s-0.165-0.065-0.285-0.045
			c-0.41,0.07-1.035,0.12-1.875,0.15c-1.04,0.05-2.62,0.085-4.74,0.105c-0.1,0-0.15,0.045-0.15,0.135c0,0.07,0.03,0.175,0.09,0.315
			c0.05,0.13,0.1,0.215,0.15,0.255c0.05,0.04,0.125,0.06,0.225,0.06c0.66,0,1.46-0.01,2.4-0.03c-0.11,0.29-0.205,0.51-0.285,0.66
			c-0.45,0.77-0.935,1.52-1.455,2.25c-0.14,0.19-0.272,0.33-0.397,0.42s-0.287,0.175-0.487,0.255c-0.07,0.03-0.105,0.08-0.105,0.15
			v0.03c0,0.06,0.005,0.105,0.015,0.135c0.06,0.21,0.16,0.42,0.3,0.63c0.04,0.07,0.09,0.105,0.15,0.105
			c0.05,0,0.105-0.015,0.165-0.045c0.23-0.12,0.445-0.21,0.645-0.27c0.44-0.12,1.03-0.25,1.77-0.39v0.06
			c0.02,0.23,0.04,0.555,0.06,0.975c0,0.45-0.005,0.8-0.015,1.05l-0.93,0.045c-0.2,0.01-0.448,0.02-0.743,0.03
			s-0.638,0.03-1.028,0.06c-0.1,0.01-0.17,0.023-0.21,0.038s-0.06,0.042-0.06,0.083c0,0.06,0.045,0.165,0.135,0.315
			c0.06,0.11,0.12,0.183,0.18,0.218c0.06,0.035,0.165,0.048,0.315,0.038l2.34-0.075c-0.02,0.88-0.03,1.59-0.03,2.13
			c-0.9,0.17-1.815,0.325-2.745,0.465c-0.22,0.02-0.365,0.03-0.435,0.03l-0.27-0.015c-0.16,0-0.24,0.04-0.24,0.12
			c0,0.04,0.015,0.1,0.045,0.18c0.12,0.3,0.24,0.52,0.36,0.66C58.852,22.071,58.937,22.116,59.027,22.116z M69.722,22.971
			c0.1,0,0.24-0.075,0.42-0.225c0.15-0.13,0.255-0.273,0.315-0.427c0.06-0.155,0.095-0.363,0.105-0.623
			c0.03-0.89,0.045-2.26,0.045-4.11l0.001-3.779C70.61,12.76,70.62,12,70.637,11.526c0.02-0.42,0.05-0.755,0.09-1.005l0.015-0.135
			c0-0.12-0.05-0.215-0.15-0.285c-0.22-0.15-0.44-0.255-0.66-0.315l-0.18-0.03c-0.07,0-0.105,0.04-0.105,0.12
			c0,0.05,0.005,0.09,0.015,0.12c0.06,0.31,0.09,0.65,0.09,1.02c0.01,0.62,0.015,1.6,0.015,2.94c0,2.91-0.04,5.485-0.12,7.725
			c0,0.05-0.062,0.09-0.188,0.12c-0.125,0.03-0.397,0.045-0.817,0.045l-0.203-0.001c-0.261-0.002-0.483-0.006-0.667-0.014
			c-0.14,0-0.21,0.035-0.21,0.105c0,0.07,0.055,0.12,0.165,0.15l0.945,0.27c0.32,0.09,0.525,0.155,0.615,0.195
			c0.09,0.04,0.155,0.105,0.195,0.195C69.552,22.896,69.632,22.971,69.722,22.971z M50.792,21.156c0.11,0,0.21-0.06,0.3-0.18
			c0.06-0.09,0.09-0.19,0.09-0.3c0-0.19-0.075-0.36-0.225-0.51c-0.62-0.63-1.31-0.99-2.07-1.08c-0.15-0.02-0.225,0-0.225,0.06
			c0,0.05,0.04,0.11,0.12,0.18c0.07,0.06,0.21,0.182,0.42,0.368c0.21,0.185,0.418,0.375,0.623,0.57
			c0.205,0.195,0.393,0.407,0.562,0.637C50.527,21.071,50.662,21.156,50.792,21.156z M53.237,23.271c0.12,0,0.26-0.065,0.42-0.195
			c0.15-0.1,0.255-0.228,0.315-0.382c0.06-0.155,0.095-0.347,0.105-0.578c0.03-0.82,0.045-2.03,0.045-3.63l1.23-0.015
			c0.39,0,0.875,0.01,1.455,0.03c0.19,0.02,0.285-0.045,0.285-0.195c0-0.09-0.035-0.205-0.105-0.345
			c-0.07-0.14-0.135-0.238-0.195-0.293c-0.06-0.055-0.13-0.082-0.21-0.082c-0.06,0-0.11,0.005-0.15,0.015
			c-0.35,0.05-1.115,0.1-2.295,0.15v-0.345c0-0.22,0.015-0.42,0.045-0.6c0.01-0.09,0.005-0.16-0.015-0.21
			c-0.02-0.05-0.06-0.095-0.12-0.135l-0.045-0.015l1.305-0.045c0.19,0,0.285-0.055,0.285-0.165c0-0.07-0.03-0.17-0.09-0.3
			c-0.05-0.14-0.103-0.228-0.158-0.263s-0.147-0.048-0.278-0.038c-0.36,0.03-0.9,0.055-1.62,0.075
			c-1.17,0.04-2.075,0.065-2.715,0.075l-1.77,0.045c-0.18,0-0.27,0.04-0.27,0.12c0,0.04,0.04,0.14,0.12,0.3
			c0.06,0.11,0.12,0.18,0.18,0.21c0.06,0.03,0.165,0.045,0.315,0.045l1.29-0.015c0.56,0,1.42-0.01,2.58-0.03
			c0.03,0.19,0.045,0.39,0.045,0.6v0.72l-4.05,0.09l-1.725,0.03c-0.1,0.02-0.15,0.065-0.15,0.135c0,0.05,0.03,0.15,0.09,0.3
			c0.06,0.12,0.118,0.198,0.173,0.233s0.138,0.052,0.248,0.052l5.415-0.12c0,1.08-0.025,2.28-0.075,3.6
			c0,0.05-0.052,0.087-0.157,0.112c-0.105,0.025-0.338,0.038-0.698,0.038l-0.253-0.001c-0.244-0.002-0.459-0.007-0.647-0.014
			c-0.14,0-0.21,0.035-0.21,0.105c0,0.06,0.055,0.105,0.165,0.135l0.825,0.24c0.33,0.09,0.537,0.153,0.623,0.188
			c0.085,0.035,0.147,0.093,0.188,0.173C53.032,23.206,53.117,23.271,53.237,23.271z M45.842,23.151c0.08,0,0.155-0.045,0.225-0.135
			c0.12-0.14,0.205-0.295,0.255-0.465c0.05-0.17,0.085-0.395,0.105-0.675c0.05-1.13,0.075-2.225,0.075-3.285
			c0-0.66-0.005-1.135-0.015-1.425c-0.02-0.3-0.045-0.515-0.075-0.645c-0.04-0.21-0.12-0.38-0.24-0.51l-0.075-0.06
			c0.48-0.49,1.07-1.18,1.77-2.07c0.06-0.08,0.09-0.15,0.09-0.21c0-0.06-0.035-0.125-0.105-0.195c-0.14-0.14-0.33-0.28-0.57-0.42
			c-0.05-0.04-0.1-0.06-0.15-0.06c-0.06,0-0.115,0.055-0.165,0.165c-0.08,0.2-0.2,0.425-0.36,0.675c-0.38,0.6-0.83,1.195-1.35,1.785
			s-1.205,1.32-2.055,2.19c-0.06,0.06-0.09,0.12-0.09,0.18c0,0.06,0.035,0.09,0.105,0.09c0.05,0,0.095-0.015,0.135-0.045
			c0.82-0.45,1.565-0.98,2.235-1.59c0.02,0.28,0.03,0.505,0.03,0.675c0.01,0.28,0.015,0.74,0.015,1.38c0,1.19-0.03,2.38-0.09,3.57
			l-0.015,0.27c0,0.18,0.035,0.385,0.105,0.615C45.682,23.086,45.752,23.151,45.842,23.151z M49.922,14.001v-1.185
			c0.63,0,1.545-0.01,2.745-0.03c0.72-0.02,1.24-0.03,1.56-0.03l-0.015,1.155c-0.23,0-0.625,0.01-1.185,0.03L49.922,14.001z
			 M49.922,12.156l-0.015-0.885c0-0.12-0.005-0.205-0.015-0.255c0.26-0.01,1.405-0.04,3.435-0.09l0.975-0.015l-0.045,1.155
			c-0.23,0-0.605,0.01-1.125,0.03L49.922,12.156z M49.277,15.111c0.07,0,0.18-0.03,0.33-0.09c0.17-0.08,0.27-0.185,0.3-0.315
			c0.46,0,1.13-0.01,2.01-0.03l1.875-0.015h0.45l0.045,0.195c0.03,0.07,0.08,0.105,0.15,0.105c0.06,0,0.135-0.015,0.225-0.045
			c0.18-0.07,0.31-0.167,0.39-0.292c0.08-0.125,0.12-0.283,0.12-0.472c0-0.5,0.007-1.043,0.022-1.628
			c0.015-0.585,0.033-1.087,0.053-1.507c0.02-0.18,0.05-0.305,0.09-0.375c0.03-0.06,0.045-0.11,0.045-0.15
			c0-0.09-0.05-0.155-0.15-0.195c-0.17-0.1-0.325-0.175-0.465-0.225c-0.02-0.01-0.045-0.015-0.075-0.015
			c-0.07-0.04-0.145-0.035-0.225,0.015c-0.15,0.08-0.31,0.12-0.48,0.12h-0.315c-1.86,0.04-3.235,0.08-4.125,0.12
			c-0.18-0.09-0.375-0.135-0.585-0.135c-0.07,0-0.105,0.025-0.105,0.075c0,0.03,0.015,0.085,0.045,0.165c0.05,0.2,0.08,0.4,0.09,0.6
			c0.04,0.57,0.06,1.485,0.06,2.745c0.01,0.21,0.015,0.49,0.015,0.84c0.01,0.19,0.035,0.335,0.075,0.435
			C49.162,15.086,49.207,15.111,49.277,15.111z M44.132,13.401c0.04,0,0.075-0.005,0.105-0.015c0.68-0.25,1.265-0.56,1.755-0.93
			c0.49-0.37,1.13-0.92,1.92-1.65c0.07-0.07,0.105-0.135,0.105-0.195s-0.03-0.125-0.09-0.195c-0.13-0.16-0.305-0.32-0.525-0.48
			c-0.07-0.05-0.125-0.075-0.165-0.075c-0.06,0-0.11,0.05-0.15,0.15l-0.33,0.48c-0.58,0.74-1.465,1.625-2.655,2.655
			c-0.07,0.06-0.105,0.115-0.105,0.165C43.997,13.371,44.042,13.401,44.132,13.401z"/>
	</defs>
	<clipPath id="SVGID_14_" display="inline">
		<use xlink:href="#SVGID_13_"  overflow="visible"/>
	</clipPath>
	<g display="inline" clip-path="url(#SVGID_14_)">
		<defs>
			<rect id="SVGID_15_" x="-1.398" y="-0.959" width="148" height="35"/>
		</defs>
		<clipPath id="SVGID_16_">
			<use xlink:href="#SVGID_15_"  overflow="visible"/>
		</clipPath>
		<rect x="38.112" y="4.336" clip-path="url(#SVGID_16_)" fill="#333333" width="68.785" height="23.935"/>
	</g>
</g>
<g display="none">
	<defs>
		<path id="SVGID_17_" d="M92.782,22.455l1.064-0.196c-0.154-0.602-0.462-1.75-0.658-2.338l-0.966,0.21
			C92.39,20.719,92.656,21.797,92.782,22.455z M96.156,22.413l1.008-0.308c-0.21-0.56-0.714-1.652-1.036-2.254l-0.924,0.322
			C95.512,20.775,95.96,21.867,96.156,22.413z M99.67,22.595l0.924-0.532c-0.392-0.658-1.05-1.666-1.554-2.324l-0.854,0.462
			C98.69,20.929,99.292,21.895,99.67,22.595z M89.506,22.651c0.49-0.728,1.106-1.736,1.428-2.576l-0.91-0.392
			c-0.322,0.742-0.924,1.694-1.498,2.436L89.506,22.651z M92.558,14.139l0.77-0.518c-0.364-0.56-1.134-1.61-1.428-1.974l-0.756,0.49
			C91.452,12.515,92.18,13.537,92.558,14.139z M96.59,14.181c0.42-0.504,1.204-1.596,1.484-2.044l-0.756-0.518
			c-0.28,0.448-1.022,1.47-1.498,1.988L96.59,14.181z M98.676,14.419h-3.57v-3.024h3.57V14.419z M94.126,14.419h-3.598v-3.024h3.598
			V14.419z M100.846,19.473v-0.896h-5.74v-1.19h4.942v-0.896h-4.942v-1.176h4.578v-4.802H89.52v4.802h4.606v1.176h-4.97v0.896h4.97
			v1.19h-5.754v0.896H100.846z M86.496,22.595l0.518-0.812c-0.868-0.56-2.156-1.344-3.024-1.848l-0.476,0.77
			C84.312,21.167,85.67,22.021,86.496,22.595z M79.216,22.539c0.98-0.504,2.24-1.246,3.164-1.848l-0.504-0.784
			c-0.952,0.658-2.086,1.316-3.108,1.764L79.216,22.539z M84.522,18.871h-3.15v-1.036h3.15V18.871z M84.522,17.037h-3.15v-1.05h3.15
			V17.037z M84.522,15.203h-3.15v-1.064h3.15V15.203z M87,19.711v-0.84h-1.512v-4.732h1.232v-0.798h-1.232v-0.91h-0.966v0.91h-3.15
			v-0.91h-0.98v0.91h-1.134v0.798h1.134v4.732h-1.344v0.84H87z M74.876,22.427c1.05-1.974,1.4-3.346,1.484-6.762h1.47
			c0,0.434-0.098,4.116-0.126,4.55c-0.042,0.588-0.21,0.756-0.896,0.756h-0.812l0.224,0.924h0.924c0.98,0,1.414-0.308,1.456-1.316
			l0.14-5.852h-2.366v-1.89h2.646v-0.252l0.756,0.518c0.364-0.42,0.672-0.812,0.952-1.204h6.202v-0.882h-5.656
			c0.168-0.294,0.322-0.616,0.49-0.966l-0.91-0.308c-0.392,0.98-1.008,1.89-1.834,2.786v-0.63h-2.128l0.84-0.322
			c-0.238-0.574-0.574-1.288-0.868-1.848l-0.966,0.35c0.28,0.504,0.644,1.246,0.868,1.82h-2.422v0.938h1.148
			c-0.014,0.7-0.042,2.058-0.042,2.352c-0.126,3.654-0.294,4.676-1.428,6.79L74.876,22.427z M72.524,22.553l0.574-1.008
			c-1.61-0.882-2.898-1.834-3.948-2.912c1.484-1.778,2.282-3.99,2.954-7.448l-1.064-0.238c-0.546,3.178-1.232,5.208-2.632,6.874
			c-1.47-1.792-2.366-3.92-2.912-6.566l-1.008,0.336c0.63,2.912,1.638,5.138,3.178,7.014c-1.036,0.994-2.38,1.89-4.186,2.898
			l0.616,0.952c1.848-1.036,3.234-1.96,4.312-3.024C69.528,20.579,70.872,21.587,72.524,22.553z M68.366,13.565l0.994-0.518
			c-0.392-0.798-1.204-2.366-1.61-3.108l-0.952,0.49C67.218,11.199,67.988,12.725,68.366,13.565z M63.116,22.399v-8.96
			c0.462-1.008,0.868-2.072,1.204-3.234l-1.078-0.308c-0.7,2.394-1.778,4.662-3.29,6.356l0.63,1.162
			c0.56-0.672,1.05-1.344,1.484-2.044v7.028H63.116z M47.436,22.511c0.378-0.798,1.918-4.018,2.296-4.774l-0.406-0.196l-0.602-0.28
			c-0.322,0.728-1.862,3.92-2.31,4.718L47.436,22.511z M49.004,16.449l0.672-0.924c-0.798-0.644-2.184-1.68-2.926-2.156l-0.63,0.868
			C46.82,14.713,48.192,15.791,49.004,16.449z M49.844,22.497c1.862-1.106,3.304-2.17,4.452-3.318
			c1.036,1.134,2.366,2.198,4.088,3.29l0.7-1.036c-1.708-1.05-2.996-2.058-4.004-3.108c1.484-1.764,2.352-3.766,2.94-6.426v-1.05
			h-7.56v1.078h6.398c-0.49,2.268-1.246,4.004-2.52,5.544c-1.232-1.568-1.918-3.29-2.408-5.432l-1.036,0.322
			c0.546,2.324,1.316,4.228,2.66,5.95c-1.12,1.106-2.548,2.114-4.396,3.15L49.844,22.497z M49.564,13.145l0.686-0.896
			c-0.672-0.532-2.086-1.652-2.772-2.156l-0.672,0.854C47.52,11.479,48.892,12.585,49.564,13.145z"/>
	</defs>
	<clipPath id="SVGID_18_" display="inline">
		<use xlink:href="#SVGID_17_"  overflow="visible"/>
	</clipPath>
	<g display="inline" clip-path="url(#SVGID_18_)">
		<defs>
			<rect id="SVGID_19_" x="-0.398" y="-1.959" width="148" height="35"/>
		</defs>
		<clipPath id="SVGID_20_">
			<use xlink:href="#SVGID_19_"  overflow="visible"/>
		</clipPath>
		<rect x="41.12" y="4.729" clip-path="url(#SVGID_20_)" fill="#333333" width="64.726" height="22.922"/>
	</g>
</g>
<g display="none">
	<defs>
		<path id="SVGID_21_" d="M90.094,22.183c0.093,0,0.278-0.075,0.553-0.224s0.413-0.317,0.413-0.504c0-0.037-0.009-0.25-0.028-0.637
			c-0.019-0.387-0.028-1.038-0.028-1.953v-5.6l0.21-0.126c0.084-0.065,0.126-0.119,0.126-0.161s-0.056-0.096-0.168-0.161
			l-0.308-0.154c0.261-0.513,0.523-1.083,0.784-1.708c0.177-0.411,0.348-0.646,0.511-0.707c0.163-0.061,0.245-0.121,0.245-0.182
			c0-0.061-0.075-0.133-0.224-0.217l-1.12-0.616c-0.513,2.529-1.568,4.933-3.164,7.21l0.168,0.154c0.728-0.691,1.4-1.531,2.016-2.52
			v4.48c0,0.691-0.019,1.339-0.056,1.946l-0.07,1.358C89.954,22.076,90.001,22.183,90.094,22.183z M95.68,22.295
			c0.065,0,0.243-0.068,0.532-0.203c0.289-0.135,0.434-0.296,0.434-0.483l-0.014-0.938c-0.007-0.301-0.011-0.704-0.013-1.21
			l-0.001-0.54h2.24c0.121,0,0.182-0.023,0.182-0.07c0-0.047-0.037-0.112-0.112-0.196l-0.77-0.91L97.5,18.557h-0.882v-5.53
			c0.271,1.288,0.6,2.336,0.987,3.143c0.387,0.807,0.859,1.503,1.414,2.086s0.889,0.875,1.001,0.875c0.056,0,0.126-0.07,0.21-0.21
			c0.084-0.14,0.224-0.252,0.42-0.336c0.196-0.084,0.415-0.117,0.658-0.098v-0.238c-0.989-0.383-1.86-1.027-2.611-1.932
			c-0.751-0.905-1.323-2.002-1.715-3.29h3.808c0.14,0,0.21-0.026,0.21-0.077c0-0.051-0.037-0.114-0.112-0.189l-0.91-1.092
			l-0.854,0.994h-2.506v-2.422l0.336-0.252c0.112-0.084,0.168-0.156,0.168-0.217c0-0.061-0.075-0.119-0.224-0.175l-1.302-0.504
			c0.037,0.663,0.056,1.419,0.056,2.268v1.302h-2.898c-0.42,0-0.803-0.023-1.148-0.07l0.49,0.588
			c0.233-0.103,0.541-0.154,0.924-0.154h1.75c-0.644,2.455-1.82,4.531-3.528,6.23l0.14,0.182c2.044-1.493,3.467-3.509,4.27-6.048
			v5.166h-1.75c-0.42,0-0.798-0.023-1.134-0.07l0.476,0.588c0.243-0.103,0.555-0.154,0.938-0.154h1.47
			c-0.009,1.232-0.047,2.184-0.112,2.856c-0.019,0.215-0.016,0.355,0.007,0.42C95.57,22.262,95.615,22.295,95.68,22.295z
			 M80.056,22.267c0.047,0,0.212-0.063,0.497-0.189c0.285-0.126,0.427-0.245,0.427-0.357c0-0.009-0.009-0.154-0.028-0.434
			l-0.007-0.113c-0.014-0.281-0.021-0.687-0.021-1.217v-4.606h0.378c0.159,0.896,0.502,1.715,1.029,2.457
			c0.527,0.742,1.195,1.391,2.002,1.946c0.807,0.555,1.286,0.833,1.435,0.833c0.093,0,0.156-0.063,0.189-0.189
			c0.033-0.126,0.154-0.259,0.364-0.399c0.21-0.14,0.455-0.219,0.735-0.238v-0.21c-1.549-0.439-2.718-0.973-3.507-1.603
			c-0.789-0.63-1.435-1.496-1.939-2.597h4.676c0.131,0,0.196-0.026,0.196-0.077s-0.037-0.114-0.112-0.189l-1.008-1.218l-0.966,1.12
			h-3.472v-1.96l0.308-0.196c0.121-0.084,0.182-0.159,0.182-0.224s-0.07-0.121-0.21-0.168l-1.274-0.392
			c0.028,0.485,0.042,0.919,0.042,1.302v1.638h-4.564c-0.42,0-0.807-0.023-1.162-0.07l0.504,0.588
			c0.243-0.103,0.56-0.154,0.952-0.154h3.08c-0.756,1.437-1.47,2.571-2.142,3.402c-0.672,0.831-1.596,1.699-2.772,2.604l0.126,0.182
			c1.288-0.635,2.352-1.398,3.192-2.289c0.84-0.891,1.731-2.191,2.674-3.899h0.112v4.564c0,0.672-0.007,1.171-0.021,1.498
			s-0.021,0.551-0.021,0.672C79.93,22.206,79.972,22.267,80.056,22.267z M75.296,13.769c0.317,0,0.59-0.166,0.819-0.497
			c0.229-0.331,0.343-0.67,0.343-1.015c0-0.121-0.009-0.275-0.028-0.462h8.414L84.2,13.363l0.154,0.112
			c0.877-1.017,1.559-1.531,2.044-1.54c0.205-0.009,0.308-0.051,0.308-0.126c0-0.075-0.065-0.159-0.196-0.252l-1.302-0.938
			l-0.504,0.798H76.36c-0.028-0.131-0.075-0.373-0.14-0.728h-0.252c0.028,0.709-0.252,1.349-0.84,1.918
			c-0.224,0.196-0.336,0.397-0.336,0.602C74.792,13.582,74.96,13.769,75.296,13.769z M80.665,11.263
			c0.219,0,0.387-0.091,0.504-0.273c0.117-0.182,0.175-0.392,0.175-0.63c0-0.238-0.156-0.462-0.469-0.672
			c-0.313-0.21-0.786-0.38-1.421-0.511l-0.098,0.196c0.233,0.168,0.418,0.355,0.553,0.56s0.25,0.513,0.343,0.924l0.025,0.095
			C80.344,11.16,80.473,11.263,80.665,11.263z M72.44,21.077c0.308,0,0.462-0.341,0.462-1.022c0-0.168-0.063-0.334-0.189-0.497
			s-0.378-0.376-0.756-0.637c-0.378-0.261-0.931-0.588-1.659-0.98l-0.126,0.196c0.345,0.243,0.709,0.632,1.092,1.169
			c0.383,0.537,0.614,0.926,0.693,1.169s0.152,0.404,0.217,0.483S72.328,21.077,72.44,21.077z M64.082,21.847
			c0.887-0.607,1.909-1.484,3.066-2.632c0.233-0.224,0.434-0.359,0.602-0.406c0.159-0.037,0.238-0.089,0.238-0.154
			c0-0.065-0.051-0.14-0.154-0.224l-0.798-0.602c-0.803,1.307-1.839,2.59-3.108,3.85L64.082,21.847z M70.816,16.513h-3.304v-1.54
			h3.304V16.513z M70.816,14.581h-3.304v-1.484h3.304V14.581z M61.87,14.567c0.121,0,0.245-0.091,0.371-0.273
			c0.126-0.182,0.189-0.408,0.189-0.679c0-0.504-0.611-0.952-1.834-1.344l-0.07,0.182c0.56,0.504,0.887,1.059,0.98,1.666
			c0.019,0.177,0.054,0.296,0.105,0.357C61.662,14.537,61.749,14.567,61.87,14.567z M62.164,21.441c0.345,0,0.518-0.233,0.518-0.7
			c0-0.084-0.014-0.233-0.042-0.448c-0.028-0.215-0.042-0.523-0.042-0.924c0-1.195,0.149-2.273,0.448-3.234l1.386-4.354
			l-0.266-0.112l-1.932,4.914c-0.121,0.308-0.224,0.509-0.308,0.602c-0.084,0.093-0.205,0.14-0.364,0.14
			c-0.159,0-0.387-0.019-0.686-0.056v0.224c0.327,0.149,0.555,0.301,0.686,0.455c0.131,0.154,0.196,0.366,0.196,0.637
			s-0.093,0.793-0.28,1.568c-0.028,0.131-0.042,0.294-0.042,0.49c0,0.196,0.068,0.378,0.203,0.546
			C61.774,21.357,61.949,21.441,62.164,21.441z M62.878,11.753c0.177,0,0.327-0.079,0.448-0.238c0.121-0.159,0.182-0.38,0.182-0.665
			s-0.159-0.534-0.476-0.749s-0.784-0.387-1.4-0.518l-0.084,0.154c0.504,0.355,0.835,0.915,0.994,1.68
			C62.589,11.641,62.701,11.753,62.878,11.753z M68.387,22.141c0.07,0,0.254-0.086,0.553-0.259c0.299-0.173,0.492-0.359,0.581-0.56
			s0.133-0.572,0.133-1.113v-3.318h1.162v0.336c0,0.112,0.042,0.168,0.126,0.168c0.084,0,0.257-0.051,0.518-0.154
			c0.261-0.103,0.392-0.247,0.392-0.434l-0.042-0.714c-0.028-0.28-0.042-0.569-0.042-0.868v-2.002l0.168-0.084
			c0.131-0.056,0.196-0.107,0.196-0.154c0-0.047-0.047-0.107-0.14-0.182l-0.882-0.63l-0.42,0.546h-2.408
			c0.523-0.625,0.882-1.232,1.078-1.82h3.318c0.149,0,0.224-0.028,0.224-0.084s-0.042-0.131-0.126-0.224l-0.882-1.036l-0.812,0.966
			h-5.46l-0.994-0.56c0.028,0.495,0.042,0.98,0.042,1.456v2.632c0,2.156-0.166,3.764-0.497,4.823
			c-0.331,1.059-0.908,2.079-1.729,3.059l0.21,0.112c1.017-0.821,1.764-1.797,2.24-2.926s0.714-2.809,0.714-5.04v-3.178h2.772
			c-0.084,0.588-0.257,1.195-0.518,1.82h-0.35l-0.91-0.518c0.028,0.513,0.042,1.069,0.042,1.666v1.022
			c0,0.803-0.037,1.577-0.112,2.324c-0.009,0.103-0.014,0.203-0.014,0.301s0.035,0.147,0.105,0.147c0.07,0,0.24-0.056,0.511-0.168
			c0.271-0.112,0.397-0.313,0.378-0.602h1.162v3.388c0,0.224-0.063,0.364-0.189,0.42s-0.32,0.084-0.581,0.084
			s-0.639-0.028-1.134-0.084l-0.028,0.238c0.588,0.103,0.987,0.219,1.197,0.35c0.21,0.131,0.32,0.336,0.329,0.616
			C68.277,22.062,68.317,22.141,68.387,22.141z M46.806,21.413c0.411,0,0.772-0.289,1.085-0.868c0.313-0.579,0.469-1.33,0.469-2.254
			c0-0.187-0.009-0.373-0.028-0.56h-0.196c-0.103,0.579-0.25,1.024-0.441,1.337c-0.191,0.313-0.553,0.712-1.085,1.197
			c-0.224,0.196-0.336,0.387-0.336,0.574c0,0.187,0.051,0.329,0.154,0.427C46.531,21.364,46.657,21.413,46.806,21.413z
			 M58.279,20.727c0.163,0,0.313-0.119,0.448-0.357c0.135-0.238,0.203-0.469,0.203-0.693c0-0.224-0.061-0.439-0.182-0.644
			c-0.121-0.205-0.366-0.448-0.735-0.728c-0.369-0.28-0.908-0.611-1.617-0.994l-0.168,0.168c0.439,0.401,0.803,0.849,1.092,1.344
			c0.289,0.495,0.481,0.936,0.574,1.323S58.116,20.727,58.279,20.727z M52.995,21.916c0.785-0.005,1.408-0.03,1.868-0.076
			c0.518-0.051,0.919-0.21,1.204-0.476c0.285-0.266,0.427-0.439,0.427-0.518c0-0.079-0.056-0.147-0.168-0.203
			c-0.177-0.103-0.317-0.299-0.42-0.588c-0.103-0.289-0.168-0.845-0.196-1.666H55.5c-0.103,1.307-0.275,2.079-0.518,2.317
			c-0.243,0.238-1.19,0.357-2.842,0.357c-0.635,0-1.02-0.026-1.155-0.077s-0.203-0.17-0.203-0.357v-2.366l0.168-0.196
			c0.065-0.084,0.098-0.145,0.098-0.182s-0.047-0.084-0.14-0.14l-1.246-0.56c0.103,0.411,0.154,0.873,0.154,1.386v2.282
			c0,0.317,0.072,0.553,0.217,0.707c0.145,0.154,0.392,0.252,0.742,0.294s0.989,0.063,1.918,0.063L52.995,21.916z M53.428,19.607
			c0.14,0,0.268-0.105,0.385-0.315c0.117-0.21,0.175-0.478,0.175-0.805c0-0.196-0.161-0.439-0.483-0.728s-0.842-0.653-1.561-1.092
			l-0.168,0.14c0.607,0.597,0.989,1.316,1.148,2.156c0.047,0.233,0.107,0.399,0.182,0.497
			C53.181,19.558,53.288,19.607,53.428,19.607z M55.976,15.673h-2.912v-2.184h2.912V15.673z M52.126,15.673H49.34v-2.184h2.786
			V15.673z M55.976,13.097h-2.912v-2.1h2.912V13.097z M52.126,13.097H49.34v-2.1h2.786V13.097z M48.353,17.115
			c0.079,0,0.264-0.061,0.553-0.182s0.434-0.299,0.434-0.532v-0.322h6.636v0.518c0,0.112,0.042,0.168,0.126,0.168
			s0.233-0.037,0.448-0.112c0.215-0.075,0.357-0.145,0.427-0.21s0.105-0.163,0.105-0.294l-0.042-0.7
			c-0.019-0.28-0.028-0.574-0.028-0.882v-3.486l0.294-0.238c0.065-0.056,0.098-0.103,0.098-0.14c0-0.037-0.033-0.084-0.098-0.14
			l-0.994-0.742l-0.546,0.784h-6.58l-0.854-0.616c0.028,0.504,0.042,1.073,0.042,1.708v2.772c0,0.663-0.037,1.377-0.112,2.142
			c-0.019,0.131-0.028,0.247-0.028,0.35S48.274,17.115,48.353,17.115z"/>
	</defs>
	<clipPath id="SVGID_22_" display="inline">
		<use xlink:href="#SVGID_21_"  overflow="visible"/>
	</clipPath>
	<g display="inline" clip-path="url(#SVGID_22_)">
		<defs>
			<rect id="SVGID_23_" x="-0.398" y="-2.959" width="148" height="35"/>
		</defs>
		<clipPath id="SVGID_24_">
			<use xlink:href="#SVGID_23_"  overflow="visible"/>
		</clipPath>
		<rect x="41.274" y="4.093" clip-path="url(#SVGID_24_)" fill="#333333" width="65.034" height="23.202"/>
	</g>
</g>
<g>
	<defs>
		<path id="SVGID_25_" d="M95.674,23.441v-2.884h2.17v-0.966h-2.17v-5.614h0.168c0.644,2.59,1.834,4.928,3.542,7l0.658-0.826
			c-1.624-1.806-2.758-3.864-3.402-6.174h2.856v-0.98h-3.822v-2.408H94.68v2.408h-3.71v0.98h2.73
			c-0.672,2.576-1.778,4.676-3.346,6.3l0.518,0.868c1.722-1.862,2.94-4.256,3.64-7.168h0.168v5.614h-2.142v0.966h2.142v2.884H95.674
			z M89.85,23.455v-9.184c0.546-1.036,0.994-2.142,1.358-3.304l-0.91-0.42c-0.644,2.31-1.694,4.354-3.15,6.146l0.294,1.008
			c0.504-0.574,0.98-1.176,1.414-1.806v7.56H89.85z M79.07,23.385c0.812,0,1.218-0.392,1.218-1.162v-2.968h5.516v-0.98h-5.516
			v-0.938c1.12-0.616,2.142-1.232,3.052-1.876v-0.938h-7.518v0.938h6.006c-0.574,0.364-1.428,0.854-2.562,1.442v1.372h-5.852v0.98
			h5.852v2.618c0,0.406-0.182,0.616-0.546,0.616c-0.588,0-1.12-0.014-1.61-0.028l0.238,0.924H79.07z M74.674,15.167v-2.156h9.856
			v2.156h1.008v-3.122H80.26c-0.182-0.574-0.378-1.092-0.574-1.554l-1.148,0.196c0.224,0.406,0.434,0.854,0.63,1.358h-5.502v3.122
			H74.674z M59.582,22.783c1.624-0.392,3.08-0.924,4.368-1.568v-0.966c-1.288,0.644-2.786,1.148-4.494,1.526L59.582,22.783z
			 M63.852,23.413c0.952-0.616,1.624-1.358,2.03-2.226c0.364-0.826,0.588-2.128,0.658-3.892h-0.98
			c-0.056,1.582-0.252,2.73-0.588,3.458c-0.35,0.714-0.938,1.33-1.764,1.862L63.852,23.413z M70.544,23.189
			c0.616-0.028,1.008-0.196,1.19-0.476c0.182-0.308,0.28-1.134,0.28-2.45l-0.868-0.308c0,0.826-0.042,1.428-0.098,1.82
			c-0.056,0.308-0.238,0.476-0.546,0.504h-0.91c-0.224-0.028-0.322-0.182-0.322-0.476v-4.634h-0.966v4.802
			c0,0.812,0.42,1.218,1.26,1.218H70.544z M59.722,19.955c1.344-0.224,2.758-0.63,4.228-1.246v-0.938
			c-0.994,0.434-1.974,0.77-2.954,1.022c0.812-1.008,1.834-2.674,3.066-4.998l-0.91-0.35c-0.266,0.532-0.518,1.022-0.77,1.498
			c-0.616,0.112-1.232,0.224-1.848,0.308c0.728-1.064,1.442-2.492,2.142-4.284l-0.966-0.392c-0.56,1.652-1.204,3.108-1.96,4.382
			c-0.14,0.196-0.28,0.322-0.448,0.392l0.266,0.924c0.77-0.112,1.54-0.252,2.296-0.392c-0.77,1.344-1.428,2.282-1.96,2.842
			c-0.126,0.112-0.28,0.224-0.462,0.308L59.722,19.955z M70.74,17.155l0.784-0.546c-0.518-0.924-1.26-1.988-2.212-3.206l-0.77,0.476
			c0.35,0.448,0.686,0.91,0.994,1.358c-1.288,0.21-2.59,0.364-3.892,0.476c0.476-0.56,1.022-1.442,1.638-2.66h4.284v-0.966h-3.15
			c-0.196-0.588-0.406-1.134-0.616-1.61l-1.022,0.168c0.224,0.434,0.434,0.91,0.63,1.442h-3.57v0.966h2.394
			c-0.756,1.456-1.358,2.352-1.834,2.702c-0.056,0.014-0.112,0.042-0.196,0.07l0.224,0.896c2.044-0.154,3.934-0.364,5.67-0.644
			C70.334,16.441,70.544,16.791,70.74,17.155z M46.044,23.035c1.4-0.854,2.576-1.848,3.528-2.996l-0.714-0.63
			c-0.924,1.064-2.072,2.002-3.444,2.814L46.044,23.035z M57.02,23.105l0.714-0.714c-0.952-1.036-2.128-2.058-3.542-3.08
			l-0.672,0.644C55.004,21.075,56.166,22.125,57.02,23.105z M51.084,23.399c0.784,0,1.19-0.406,1.19-1.19v-3.752
			c1.204-0.098,2.282-0.196,3.248-0.308c0.336,0.49,0.644,0.966,0.91,1.442l0.812-0.574c-0.616-0.994-1.498-2.156-2.646-3.5
			l-0.756,0.462c0.378,0.448,0.742,0.91,1.092,1.358c-1.624,0.196-3.584,0.35-5.866,0.476c1.764-0.924,3.822-2.422,6.188-4.508
			l-0.924-0.462c-0.672,0.602-1.316,1.162-1.946,1.666c-1.148,0.098-2.282,0.182-3.402,0.238c0.896-0.588,1.778-1.372,2.646-2.38
			c1.988-0.154,3.696-0.406,5.152-0.742l-0.49-0.854c-2.66,0.588-6.006,0.882-10.024,0.882l0.294,0.882
			c1.344,0,2.604-0.028,3.794-0.084c-0.952,1.036-1.778,1.722-2.478,2.072c-0.21,0.084-0.434,0.154-0.686,0.182l0.21,0.896
			c1.4-0.084,2.716-0.168,3.934-0.266c-1.428,1.064-2.716,1.848-3.864,2.352c-0.266,0.084-0.56,0.154-0.882,0.182l0.28,0.896
			c1.582-0.07,3.038-0.154,4.382-0.238v3.43c0,0.336-0.182,0.518-0.518,0.518c-0.462,0-0.938-0.028-1.442-0.07l0.224,0.994H51.084z"
			/>
	</defs>
	<clipPath id="SVGID_26_">
		<use xlink:href="#SVGID_25_"  overflow="visible"/>
	</clipPath>
	<g clip-path="url(#SVGID_26_)">
		<defs>
			<rect id="SVGID_27_" x="-1.398" y="-0.959" width="148" height="35"/>
		</defs>
		<clipPath id="SVGID_28_">
			<use xlink:href="#SVGID_27_"  overflow="visible"/>
		</clipPath>
		<rect x="40.414" y="5.477" clip-path="url(#SVGID_28_)" fill="#999999" width="64.628" height="22.978"/>
	</g>
</g>
</svg>
